<svg id="Ebene_1" data-name="Ebene 1" xmlns="http://www.w3.org/2000/svg" viewBox="0 0 347.96 227.01"><defs><style>.cls-1{fill:#fff;}.cls-2,.cls-3{fill:none;stroke:#fff;stroke-linecap:round;stroke-width:5px;}.cls-3{stroke-linejoin:round;}</style></defs><path class="cls-1" d="M79.22,156.92a7.32,7.32,0,0,1-5.2-2.13c-1.9-1.9-1.92-3.77-1.92-8.44s0-6.54,1.92-8.44a7.32,7.32,0,0,1,5.2-2.13c3.74,0,6.37,2.34,7.07,6.07H84.68a5.42,5.42,0,0,0-5.46-4.67,5.52,5.52,0,0,0-3.94,1.61c-1.49,1.49-1.61,3.12-1.61,7.56s.12,6.08,1.61,7.57a5.61,5.61,0,0,0,9.46-3.07h1.55A7,7,0,0,1,79.22,156.92Z"/><path class="cls-1" d="M96.6,155.58a4.91,4.91,0,0,0,3.88-1.69l1.11.87a6.38,6.38,0,0,1-5.08,2.16c-3.88,0-6-2.51-6-7.21s2.11-7.21,5.64-7.21,5.64,2.54,5.64,6.86V150H92C92,153.62,93.59,155.58,96.6,155.58Zm3.21-9.4a4,4,0,0,0-7.3,0,7.7,7.7,0,0,0-.5,2.65h8.3A6.4,6.4,0,0,0,99.81,146.18Z"/><path class="cls-1" d="M116,148c0-2.72-1.34-4.21-3.88-4.21s-4,1.52-4,4.21v8.73h-1.48V142.67h1.48v1.67a5.19,5.19,0,0,1,4.15-1.84,5.12,5.12,0,0,1,3.74,1.34,5.23,5.23,0,0,1,1.46,3.91v9H116Z"/><path class="cls-1" d="M123.29,153.07v-9.29h-1.93v-1.11h1.93v-4.5h1.49v4.5H128v1.11h-3.18v9.32c0,1.49.67,2.33,2.16,2.33h1v1.32h-1.28C124.46,156.75,123.29,155.2,123.29,153.07Z"/><path class="cls-1" d="M137.69,155.58a4.91,4.91,0,0,0,3.88-1.69l1.11.87a6.38,6.38,0,0,1-5.08,2.16c-3.88,0-6-2.51-6-7.21s2.11-7.21,5.64-7.21,5.64,2.54,5.64,6.86V150H133.1C133.1,153.62,134.68,155.58,137.69,155.58Zm3.21-9.4a4,4,0,0,0-7.3,0,7.7,7.7,0,0,0-.5,2.65h8.3A6.4,6.4,0,0,0,140.9,146.18Z"/><path class="cls-1" d="M153,143.81c-2.42,0-3.77,2-3.77,4.26v8.68h-1.48V142.67h1.48v1.87a4.84,4.84,0,0,1,4.12-2,4.3,4.3,0,0,1,3.39,1.34l-1.08,1.08A3.22,3.22,0,0,0,153,143.81Z"/><path class="cls-1" d="M169,156.75h-1.49v-13h-1.92v-1.11h1.92v-3c0-2.13,1.17-3.68,3.39-3.68h1.29v1.32h-1c-1.49,0-2.17.85-2.17,2.34v3.06h3.19v1.11H169Z"/><path class="cls-1" d="M184.74,155.38a5.75,5.75,0,0,1-7.83,0c-1.49-1.49-1.75-3.65-1.75-5.67s.26-4.18,1.75-5.67a5.75,5.75,0,0,1,7.83,0c1.49,1.49,1.75,3.66,1.75,5.67S186.23,153.89,184.74,155.38Zm-1-10.37a4.15,4.15,0,0,0-5.84,0c-1.17,1.17-1.25,3.06-1.25,4.7s.08,3.53,1.25,4.7a4.15,4.15,0,0,0,5.84,0c1.17-1.17,1.26-3.06,1.26-4.7S184.91,146.18,183.74,145Z"/><path class="cls-1" d="M196.59,143.81c-2.42,0-3.76,2-3.76,4.26v8.68h-1.49V142.67h1.49v1.87a4.81,4.81,0,0,1,4.11-2,4.3,4.3,0,0,1,3.39,1.34l-1.08,1.08A3.22,3.22,0,0,0,196.59,143.81Z"/><path class="cls-1" d="M84,191.79l-1.22-3.68H75.34l-1.26,3.68H69.85L77.41,171h3.18l7.6,20.79ZM79.1,177.13l-2.62,7.57h5.17Z"/><path class="cls-1" d="M98.73,180.73a2.54,2.54,0,0,0-4.47,1.89v9.17h-3.8V176.58h3.71V178A5.14,5.14,0,0,1,98,176.4a4.59,4.59,0,0,1,3.59,1.43Z"/><path class="cls-1" d="M108.51,191.79a4.13,4.13,0,0,1-4.41-4.35v-7.53h-1.6V177h1.6v-4.5h3.8V177h2.69v2.89H107.9v7.3c0,.87.41,1.37,1.31,1.37h1.38v3.21Z"/><path class="cls-1" d="M114,174v-3.1h3.89V174Zm.06,17.81V176.58h3.8v15.21Z"/><path class="cls-1" d="M126.21,179.91v11.88h-3.8V179.91h-1.57V177h1.57v-1.9a4.15,4.15,0,0,1,4.44-4.35H129V174h-1.46a1.21,1.21,0,0,0-1.34,1.37V177H129v2.89Zm5.34-5.93v-3.1h3.92V174Zm.06,17.81V177h3.8v14.77Z"/><path class="cls-1" d="M145.69,192c-3,0-6.81-1.64-6.81-7.8s3.77-7.77,6.81-7.77a6.45,6.45,0,0,1,5,2L148.14,181a3.07,3.07,0,0,0-2.45-1.2,2.62,2.62,0,0,0-2.16,1,5.14,5.14,0,0,0-.85,3.36,5.21,5.21,0,0,0,.85,3.39,2.62,2.62,0,0,0,2.16,1,3.07,3.07,0,0,0,2.45-1.2l2.57,2.55A6.5,6.5,0,0,1,145.69,192Z"/><path class="cls-1" d="M153.6,174v-3.1h3.89V174Zm.06,17.81V176.58h3.8v15.21Z"/><path class="cls-1" d="M169.49,191.79v-1.31a4.63,4.63,0,0,1-3.74,1.46,5.2,5.2,0,0,1-3.88-1.34,4.89,4.89,0,0,1-1.26-3.42c0-2.42,1.67-4.41,5.2-4.41h3.59V182c0-1.66-.81-2.4-2.83-2.4a3.28,3.28,0,0,0-2.92,1.26l-2.42-2.36c1.49-1.64,3-2.11,5.49-2.11,4.26,0,6.48,1.81,6.48,5.38v10Zm-.09-6.42h-3c-1.38,0-2.14.64-2.14,1.72s.7,1.75,2.19,1.75a3,3,0,0,0,2.4-.73,2.48,2.48,0,0,0,.55-1.92Z"/><path class="cls-1" d="M181.58,191.79a4.14,4.14,0,0,1-4.44-4.35V171h3.8v16.21c0,.9.38,1.37,1.34,1.37h1.46v3.21Z"/><path class="cls-1" d="M193.85,191.79V171h4.06v20.79Z"/><path class="cls-1" d="M211.31,191.79v-9.2a2.54,2.54,0,1,0-5.05,0v9.2h-3.8V176.58h3.71V178a5.22,5.22,0,0,1,3.8-1.58,4.93,4.93,0,0,1,3.59,1.35,5.61,5.61,0,0,1,1.55,4.32v9.72Z"/><path class="cls-1" d="M224,191.79a4.12,4.12,0,0,1-4.41-4.35v-7.53h-1.61V177h1.61v-4.5h3.79V177H226v2.89h-2.69v7.3a1.19,1.19,0,0,0,1.32,1.37H226v3.21Z"/><path class="cls-1" d="M232.45,185.37a3.15,3.15,0,0,0,3.33,3.39,4.19,4.19,0,0,0,3.45-1.44l2.31,2.25a7.25,7.25,0,0,1-5.79,2.4c-3.59,0-7-1.64-7-7.8,0-5,2.68-7.77,6.63-7.77,4.23,0,6.63,3.1,6.63,7.27v1.7Zm5.44-4.24a2.84,2.84,0,0,0-5.08,0,4.15,4.15,0,0,0-.36,1.64h5.79A4.33,4.33,0,0,0,237.89,181.13Z"/><path class="cls-1" d="M249.77,191.79a4.14,4.14,0,0,1-4.44-4.35V171h3.8v16.21c0,.9.38,1.37,1.34,1.37h1.46v3.21Z"/><path class="cls-1" d="M259.26,191.79a4.14,4.14,0,0,1-4.44-4.35V171h3.8v16.21c0,.9.38,1.37,1.34,1.37h1.47v3.21Z"/><path class="cls-1" d="M264.4,174v-3.1h3.89V174Zm.06,17.81V176.58h3.8v15.21Z"/><path class="cls-1" d="M277.75,197.55a7.11,7.11,0,0,1-5.52-2l2.37-2.39a3.88,3.88,0,0,0,3,1.16,2.87,2.87,0,0,0,3.06-3.15v-1.55a4.45,4.45,0,0,1-3.62,1.52,5,5,0,0,1-3.62-1.34c-1.43-1.43-1.55-3.39-1.55-6.05s.12-4.58,1.55-6a5.13,5.13,0,0,1,3.65-1.35,4.45,4.45,0,0,1,3.71,1.61v-1.43h3.68v14.66C284.44,194.89,281.84,197.55,277.75,197.55Zm.38-17.73c-2.25,0-2.48,1.93-2.48,3.94s.23,4,2.48,4,2.51-1.95,2.51-4S280.38,179.82,278.13,179.82Z"/><path class="cls-1" d="M291.68,185.37a3.15,3.15,0,0,0,3.33,3.39,4.22,4.22,0,0,0,3.45-1.44l2.3,2.25A7.22,7.22,0,0,1,295,192c-3.59,0-7-1.64-7-7.8,0-5,2.69-7.77,6.63-7.77,4.24,0,6.63,3.1,6.63,7.27v1.7Zm5.43-4.24a2.84,2.84,0,0,0-5.08,0,4.33,4.33,0,0,0-.35,1.64h5.78A4.14,4.14,0,0,0,297.11,181.13Z"/><path class="cls-1" d="M313.55,191.79v-9.2a2.44,2.44,0,0,0-2.51-2.77,2.47,2.47,0,0,0-2.54,2.77v9.2h-3.79V176.58h3.7V178a5.24,5.24,0,0,1,3.8-1.58,4.91,4.91,0,0,1,3.59,1.35,5.61,5.61,0,0,1,1.55,4.32v9.72Z"/><path class="cls-1" d="M327.48,192c-3,0-6.8-1.64-6.8-7.8s3.77-7.77,6.8-7.77a6.47,6.47,0,0,1,5,2L329.94,181a3.07,3.07,0,0,0-2.46-1.2,2.65,2.65,0,0,0-2.16,1,5.2,5.2,0,0,0-.84,3.36,5.28,5.28,0,0,0,.84,3.39,2.65,2.65,0,0,0,2.16,1,3.07,3.07,0,0,0,2.46-1.2l2.57,2.55A6.52,6.52,0,0,1,327.48,192Z"/><path class="cls-1" d="M338.44,185.37a3.14,3.14,0,0,0,3.33,3.39,4.19,4.19,0,0,0,3.44-1.44l2.31,2.25a7.25,7.25,0,0,1-5.78,2.4c-3.6,0-7-1.64-7-7.8,0-5,2.68-7.77,6.63-7.77,4.23,0,6.63,3.1,6.63,7.27v1.7Zm5.43-4.24a2.84,2.84,0,0,0-5.08,0,4.14,4.14,0,0,0-.35,1.64h5.78A4.33,4.33,0,0,0,343.87,181.13Z"/><path class="cls-1" d="M79.63,226.84v-1.31A4.63,4.63,0,0,1,75.89,227,5.16,5.16,0,0,1,72,225.64a4.84,4.84,0,0,1-1.26-3.41c0-2.43,1.67-4.41,5.2-4.41h3.59v-.76c0-1.67-.81-2.4-2.83-2.4a3.26,3.26,0,0,0-2.92,1.26l-2.42-2.37c1.48-1.63,2.94-2.1,5.49-2.1,4.26,0,6.48,1.81,6.48,5.37v10Zm-.09-6.43h-3c-1.37,0-2.13.65-2.13,1.73s.7,1.75,2.19,1.75a3,3,0,0,0,2.4-.73,2.5,2.5,0,0,0,.55-1.93Z"/><path class="cls-1" d="M96.28,226.84v-9.2a2.54,2.54,0,1,0-5.06,0v9.2H87.43V211.62h3.71V213a5.16,5.16,0,0,1,3.79-1.58,5,5,0,0,1,3.6,1.34,5.66,5.66,0,0,1,1.54,4.32v9.73Z"/><path class="cls-1" d="M112.57,226.84v-1.43a4.55,4.55,0,0,1-3.76,1.6,5.35,5.35,0,0,1-3.74-1.37c-1.52-1.52-1.55-4.15-1.55-6.42s0-4.88,1.55-6.4a5.27,5.27,0,0,1,3.71-1.37,4.58,4.58,0,0,1,3.71,1.52v-6.92h3.79v20.79Zm-2.68-12c-2.28,0-2.57,1.87-2.57,4.36s.29,4.38,2.57,4.38,2.6-1.9,2.6-4.38S112.16,214.86,109.89,214.86Z"/><path class="cls-1" d="M138.65,226.84l-4.06-8.29h-2.92v8.29h-4.06V206.05h8.15c4.24,0,6.75,2.89,6.75,6.36a5.59,5.59,0,0,1-3.8,5.46l4.64,9Zm-3.15-17.17h-3.83v5.49h3.83a2.75,2.75,0,1,0,0-5.49Z"/><path class="cls-1" d="M156.93,225.15a6.91,6.91,0,0,1-9.43,0c-1.37-1.44-1.72-3.16-1.72-5.93s.35-4.47,1.72-5.9a6.88,6.88,0,0,1,9.43,0c1.38,1.43,1.73,3.15,1.73,5.9S158.31,223.71,156.93,225.15Zm-3-9.61a2.38,2.38,0,0,0-1.78-.68,2.33,2.33,0,0,0-1.75.68c-.79.79-.88,2.1-.88,3.68s.09,2.92.88,3.71a2.36,2.36,0,0,0,1.75.67,2.41,2.41,0,0,0,1.78-.67c.79-.79.88-2.14.88-3.71S154.77,216.33,154,215.54Z"/><path class="cls-1" d="M173.46,225.64a5.27,5.27,0,0,1-3.71,1.37,4.61,4.61,0,0,1-3.79-1.6v1.43h-3.68V206.05h3.79V213a4.52,4.52,0,0,1,3.68-1.52,5.27,5.27,0,0,1,3.71,1.37c1.52,1.52,1.55,4.12,1.55,6.4S175,224.12,173.46,225.64Zm-4.82-10.78c-2.27,0-2.57,1.87-2.57,4.36s.3,4.38,2.57,4.38,2.57-1.9,2.57-4.38S170.92,214.86,168.64,214.86Z"/><path class="cls-1" d="M189.15,225.15a6.34,6.34,0,0,1-4.73,1.86,6.27,6.27,0,0,1-4.71-1.86c-1.37-1.44-1.72-3.16-1.72-5.93s.35-4.47,1.72-5.9a6.24,6.24,0,0,1,4.71-1.87,6.3,6.3,0,0,1,4.73,1.87c1.37,1.43,1.72,3.15,1.72,5.9S190.52,223.71,189.15,225.15Zm-3-9.61a2.41,2.41,0,0,0-1.78-.68,2.35,2.35,0,0,0-1.76.68c-.79.79-.87,2.1-.87,3.68s.08,2.92.87,3.71a2.38,2.38,0,0,0,1.76.67,2.45,2.45,0,0,0,1.78-.67c.79-.79.87-2.14.87-3.71S187,216.33,186.2,215.54Z"/><path class="cls-1" d="M199.25,226.84a4.13,4.13,0,0,1-4.41-4.35V215h-1.61v-2.89h1.61v-4.5h3.8v4.5h2.68V215h-2.68v7.3c0,.88.41,1.38,1.31,1.38h1.37v3.21Z"/><path class="cls-1" d="M204.71,209v-3.09h3.89V209Zm.06,17.82V211.62h3.8v15.22Z"/><path class="cls-1" d="M218.85,227c-3,0-6.81-1.63-6.81-7.79s3.77-7.77,6.81-7.77a6.48,6.48,0,0,1,5,2l-2.57,2.57a3.1,3.1,0,0,0-2.45-1.2,2.63,2.63,0,0,0-2.16,1,5.12,5.12,0,0,0-.85,3.36,5.25,5.25,0,0,0,.85,3.39,2.62,2.62,0,0,0,2.16,1,3.07,3.07,0,0,0,2.45-1.2l2.57,2.54A6.5,6.5,0,0,1,218.85,227Z"/><path class="cls-1" d="M231.81,227c-2.39,0-4.55-.26-6.48-2.19l2.48-2.48a5.51,5.51,0,0,0,4.06,1.43c1.32,0,2.69-.44,2.69-1.57,0-.76-.41-1.29-1.61-1.41l-2.39-.23c-2.75-.26-4.44-1.46-4.44-4.26,0-3.16,2.77-4.85,5.87-4.85,2.36,0,4.35.41,5.81,1.78l-2.34,2.37a5.27,5.27,0,0,0-3.53-1c-1.52,0-2.16.7-2.16,1.46,0,.56.23,1.2,1.58,1.32l2.39.23c3,.29,4.53,1.9,4.53,4.47C238.27,225.41,235.41,227,231.81,227Z"/><path class="cls-1" d="M27.77,80.38A27.94,27.94,0,0,1,7.49,72.14C-.11,64.55,0,56,0,41.12s-.11-23.43,7.49-31A28,28,0,0,1,27.77,1.85C42,1.85,52.61,10.2,55.32,25.61H43.39c-1.84-7.82-7-13.24-15.62-13.24A15.42,15.42,0,0,0,16.38,17c-3.8,4.12-4.66,8.57-4.66,24.08s.86,20,4.66,24.08a15.42,15.42,0,0,0,11.39,4.66c8.57,0,13.89-5.42,15.73-13.23H55.32C52.72,72,41.76,80.38,27.77,80.38"/><rect class="cls-1" x="148.74" y="2.5" width="11.71" height="77.23"/><path class="cls-1" d="M209.7,13H192.34V37.21H209.7c7.81,0,13.12-4.45,13.12-12S217.51,13,209.7,13m13.56,66.71L207,47.19H192.34V79.73H180.63V2.5h29.94c14.64,0,24,9.44,24,22.56,0,11.07-6.73,18.12-15.4,20.5l17.79,34.17Z"/><path class="cls-1" d="M288.12,17.14a16.24,16.24,0,0,0-23,0c-3.8,4.13-4.56,8.47-4.56,24s.76,19.85,4.56,24a16.24,16.24,0,0,0,23,0c3.8-4.12,4.56-8.46,4.56-24s-.76-19.85-4.56-24m8.9,55a29.22,29.22,0,0,1-40.68,0c-7.59-7.59-7.48-16.16-7.48-31s-.11-23.43,7.48-31a29.22,29.22,0,0,1,40.68,0c7.59,7.6,7.38,16.17,7.38,31s.21,23.43-7.38,31"/><path class="cls-2" d="M105.37,85.35a8,8,0,1,1,8-8,8,8,0,0,1-8,8"/><polyline class="cls-3" points="131.79 38.16 111.2 2.5 67.49 77.25 97.37 77.35"/></svg>