<?xml version="1.0" encoding="utf-8"?>
<!-- Generator: Adobe Illustrator 26.2.0, SVG Export Plug-In . SVG Version: 6.00 Build 0)  -->
<svg version="1.1" id="Ebene_1" xmlns="http://www.w3.org/2000/svg" xmlns:xlink="http://www.w3.org/1999/xlink" x="0px" y="0px"
	 viewBox="0 0 304.4 191.7" style="enable-background:new 0 0 304.4 191.7;" xml:space="preserve">
<style type="text/css">
	.st0{fill:#D17825;}
	.st1{fill:none;stroke:#FFFFFF;stroke-width:5;stroke-linecap:round;}
	.st2{fill:none;stroke:#FFFFFF;stroke-width:5;stroke-linecap:round;stroke-linejoin:round;}
	.st3{fill:#FFFFFF;}
	.st4{fill:none;stroke:#D17825;stroke-width:5;stroke-linecap:round;}
	.st5{fill:none;stroke:#D17825;stroke-width:5;stroke-linecap:round;stroke-linejoin:round;}
</style>
<g>
	<rect x="65.1" class="st0" width="127.2" height="54.4"/>
	<g>
		<path id="path4140_00000097468327983184677610000015776456318277157559_" class="st3" d="M78.7,14.2C79.4,14,80.2,14,81,14
			c4.7,0,9.3,0,14,0c0.3,0,0.8,0.1,0.8,0.5c0.1,0.8,0.1,1.6,0,2.3c-0.1,0.4-0.6,0.5-0.9,0.5c-4.1,0-8.1,0-12.2,0c0,2.6,0,5.3,0,7.9
			c3.4,0,6.7,0,10.1,0c0.3,0,0.8,0,0.8,0.5c0.1,0.8,0.1,1.6,0,2.4c-0.1,0.5-0.6,0.4-1,0.4c-3.3,0-6.6,0-9.9,0c0,3.6,0,7.2,0,10.8
			c0,0.3,0,0.9-0.5,0.9c-0.9,0.1-1.8,0-2.7,0c-0.3,0-0.5-0.2-0.7-0.4V14.2z"/>
		<path id="path4142_00000142139231643620140680000011836557897335356300_" class="st3" d="M113.7,14.1c0.6-0.1,1.3,0,2,0
			c0.5,0,0.9-0.1,1.4,0.1c0.2,0.4,0.1,0.9,0.1,1.4c0,8,0,15.9,0,23.9c0,0.3-0.1,0.7-0.5,0.8c-1,0-1.9,0-2.9,0
			c-0.4,0-0.5-0.4-0.5-0.8c0-3.7,0-7.3,0-11c-3.5,0-6.9,0-10.4,0c0,3.7,0,7.3,0,11c0,0.3-0.1,0.7-0.5,0.8c-0.9,0-1.8,0-2.7,0
			c-0.4,0-0.7-0.4-0.7-0.8c0-8.2,0-16.4,0-24.6c0-0.3,0.1-0.8,0.5-0.8c1,0,2,0,3,0c0.4,0,0.4,0.5,0.4,0.8c0,3.5,0,6.9,0,10.4
			c3.4,0,6.9,0,10.3,0c0-3.5,0-6.9,0-10.4C113.4,14.6,113.4,14.1,113.7,14.1z"/>
		<path id="path4144_00000172435796319901985920000001236410783549255813_" class="st3" d="M127.1,14.8c0-0.3-0.1-0.8,0.3-0.8
			c1-0.1,2,0,3,0c0.3,0,0.5,0.3,0.5,0.6c0.1,4,0.2,8,0.3,11.9c0.4,2.6,0.7,5.3,1.1,7.9c1.1-3.7,2.3-7.4,3.4-11.1
			c0.1-0.3,0.2-0.7,0.6-0.7c1.4,0,2.8-0.1,4.2,0c0.3,0.3,0.4,0.7,0.5,1.1c1,3.4,2.1,6.8,3.1,10.2c0.1,0.1,0.2,0.7,0.2,0.2
			c0.3-2.5,0.7-5,1-7.5c0.2-3.9,0.2-7.8,0.3-11.7c0-0.4,0-0.8,0.4-1c1-0.1,2.1,0,3.1,0c0.4,0,0.4,0.5,0.4,0.8
			c-0.3,4-0.4,8.1-0.6,12.1c-0.7,4.2-1.4,8.3-2,12.5c0,0.3-0.2,0.6-0.3,0.8c-1.2,0-2.3,0-3.5,0c-0.4,0-0.4-0.4-0.5-0.6
			c-1.4-4.4-2.7-8.9-4.1-13.3c-1.2,4.2-2.6,8.4-3.9,12.7c-0.2,0.4-0.2,0.9-0.5,1.2c-1.2,0.1-2.3,0-3.5,0c-0.4,0-0.5-0.4-0.6-0.7
			c-0.7-4.1-1.4-8.2-2-12.4c-0.3-2.5-0.2-5-0.4-7.5C127.2,18.1,127.1,16.5,127.1,14.8z"/>
		<path id="path4146_00000132784099721319443750000015619735975324764039_" class="st3" d="M166.6,14c1.2-0.1,2.4,0,3.6,0
			c0.8,0,1.6-0.1,2.4,0.1c1.6,0.4,3.1,1.3,4.1,2.6c0.8,1.2,1.2,2.6,1.3,4c-0.2,0.4-0.7,0.4-1,0.4c-0.8,0-1.6,0-2.4,0
			c-0.5-0.3-0.4-0.9-0.6-1.4c-0.3-1.4-1.6-2.3-3-2.5c-1.6-0.2-3.2-0.2-4.8,0.4c-0.9,0.4-1.7,1.1-2,2.1c-0.3,1.3-0.2,2.8,0.9,3.7
			c1.7,1.4,4,1.8,6.1,2.1c2,0.4,4.1,0.9,5.6,2.4c1.3,1.2,1.7,3.1,1.8,4.8c0.1,1.8-0.2,3.7-1.3,5.2c-1.1,1.4-2.8,2.2-4.5,2.4
			c-1.6,0.3-3.1,0.2-4.7,0.2c-1.9,0-3.9-0.5-5.4-1.7c-1.5-1.2-2.3-3.2-2.5-5.1c0-0.5-0.2-1.1,0.3-1.4c1,0,2,0,3,0
			c0.4,0,0.5,0.4,0.5,0.6c0.1,0.8,0.2,1.7,0.7,2.4c0.4,0.8,1.2,1.3,2.1,1.5c1.3,0.4,2.7,0.3,4,0.3c1.2-0.1,2.5-0.3,3.4-1.2
			c0.9-1.1,0.8-2.6,0.7-3.9c0-1-0.7-1.9-1.6-2.3c-2.6-1.3-5.7-1.2-8.3-2.3c-1.9-0.7-3.7-2.2-4.2-4.2c-0.5-2-0.4-4.3,0.6-6.2
			C162.5,15.3,164.6,14.3,166.6,14z"/>
		<path id="path4148_00000124860260359747086690000001855354922345970847_" class="st3" d="M121.2,24.4c0-0.3,0-0.7,0.4-0.7
			c0.7,0,1.5-0.1,2.3,0.1c0.1,0.2,0.1,0.5,0.1,0.8c0,2.6,0,5.1,0,7.7c-0.9,0.1-1.8,0.1-2.7,0C121.2,29.7,121.2,27,121.2,24.4z"/>
		<path id="path4150_00000121276341120461535320000011911522912021553087_" class="st3" d="M151.4,26.7c2.7,0,5.4,0,8.1,0
			c0.1,0.9,0.1,1.8,0,2.7c-2.7,0-5.4,0-8.1,0C151.3,28.5,151.2,27.6,151.4,26.7z"/>
	</g>
</g>
<g>
	<path d="M27.8,184.3c-8,0-15-2.9-20.3-8.2c-7.6-7.6-7.5-16.2-7.5-31c0-14.9-0.1-23.4,7.5-31c5.3-5.3,12.3-8.2,20.3-8.2
		c14.2,0,24.8,8.4,27.6,23.8H43.4c-1.8-7.8-7.1-13.2-15.6-13.2c-4.6,0-8.7,1.7-11.4,4.7c-3.8,4.1-4.7,8.6-4.7,24.1
		c0,15.5,0.9,20,4.7,24.1c2.7,2.9,6.8,4.7,11.4,4.7c8.6,0,13.9-5.4,15.7-13.2h11.8C52.7,175.9,41.8,184.3,27.8,184.3"/>
	<rect x="148.7" y="106.4" width="11.7" height="77.2"/>
	<path d="M209.7,116.9h-17.4v24.2h17.4c7.8,0,13.1-4.4,13.1-12S217.5,116.9,209.7,116.9 M223.3,183.6L207,151.1h-14.6v32.5h-11.7
		v-77.2h29.9c14.6,0,24,9.4,24,22.6c0,11.1-6.7,18.1-15.4,20.5l17.8,34.2H223.3z"/>
	<path d="M288.1,121c-2.7-2.9-6.9-4.8-11.5-4.8c-4.6,0-8.8,1.8-11.5,4.8c-3.8,4.1-4.6,8.5-4.6,24c0,15.5,0.8,19.9,4.6,24
		c2.7,2.9,6.9,4.8,11.5,4.8c4.6,0,8.8-1.8,11.5-4.8c3.8-4.1,4.6-8.5,4.6-24C292.7,129.5,291.9,125.1,288.1,121 M297,176
		c-5.3,5.3-12.1,8.2-20.4,8.2c-8.2,0-15-2.9-20.3-8.2c-7.6-7.6-7.5-16.2-7.5-31c0-14.9-0.1-23.4,7.5-31c5.3-5.3,12-8.2,20.3-8.2
		c8.2,0,15.1,2.9,20.4,8.2c7.6,7.6,7.4,16.2,7.4,31C304.4,159.9,304.6,168.4,297,176"/>
	<g>
		<path class="st4" d="M105.4,189.2c-4.4,0-8-3.6-8-8s3.6-8,8-8s8,3.6,8,8S109.8,189.2,105.4,189.2"/>
		<polyline class="st5" points="131.8,142 111.2,106.4 67.5,181.1 97.4,181.2 		"/>
	</g>
</g>
</svg>
